<?xml version="1.0" encoding="UTF-8"?>
<svg version="1.1" xmlns="http://www.w3.org/2000/svg" width="2118" height="2117">
<path d="M0 0 C527.34 0 1054.68 0 1598 0 C1598 527.34 1598 1054.68 1598 1598 C1070.66 1598 543.32 1598 0 1598 C0 1070.66 0 543.32 0 0 Z M74 75 C74 553.17 74 1031.34 74 1524 C552.17 1524 1030.34 1524 1523 1524 C1523 1045.83 1523 567.66 1523 75 C1044.83 75 566.66 75 74 75 Z " fill="#FFFFFF" transform="translate(260,259)"/>
<path d="M0 0 C15.18 0 30.36 0 46 0 C50.64336955 5.80421193 55.09003406 11.36717032 59.1875 17.5 C63.1761458 23.38390476 67.26004452 29.18611997 71.4375 34.9375 C75.66729157 40.76274475 79.86048597 46.61023082 84 52.5 C88.08024634 58.30400113 92.20867597 64.07000037 96.375 69.8125 C101.58542777 76.9971426 106.68980941 84.25087487 111.76464844 91.53173828 C116.18637557 97.86480055 120.68663333 104.13685755 125.22192383 110.38891602 C129.08050915 115.71280193 132.89722026 121.0647756 136.6875 126.4375 C137.19297363 127.15381592 137.69844727 127.87013184 138.21923828 128.6081543 C140.17666421 131.38786094 142.11393983 134.17090975 144 137 C144.33 91.79 144.66 46.58 145 0 C164.8 0 184.6 0 205 0 C205 85.8 205 171.6 205 260 C159 260 159 260 150.375 251.5 C148.03125 246.23046875 148.03125 246.23046875 147.0546875 243.55224609 C145.35395687 239.43663545 142.66416277 236.24299338 139.875 232.8125 C138.87541681 231.50855499 137.88184648 230.19997721 136.89453125 228.88671875 C136.41193848 228.24524902 135.9293457 227.6037793 135.43212891 226.94287109 C132.58424489 223.07934211 129.90478032 219.10056377 127.20776367 215.13110352 C123.78568531 210.10730491 120.2615461 205.16666014 116.6875 200.25 C112.05772324 193.87897516 107.50219427 187.46181158 103 181 C98.5567353 174.6242678 94.06613045 168.28833308 89.5 162 C82.54422102 152.41847312 75.77022951 142.71310838 69 133 C66.69 129.7 64.38 126.4 62 123 C61.67 168.21 61.34 213.42 61 260 C40.87 260 20.74 260 0 260 C0 174.2 0 88.4 0 0 Z " fill="#FFFFFF" transform="translate(464,464)"/>
<path d="M0 0 C1.80651833 1.56798158 3.52728987 3.23432112 5.21875 4.92578125 C5.54875 -0.35421875 5.87875 -5.63421875 6.21875 -11.07421875 C25.02875 -11.07421875 43.83875 -11.07421875 63.21875 -11.07421875 C63.21875 50.96578125 63.21875 113.00578125 63.21875 176.92578125 C44.40875 176.92578125 25.59875 176.92578125 6.21875 176.92578125 C5.88875 172.30578125 5.55875 167.68578125 5.21875 162.92578125 C4.06375 164.08078125 2.90875 165.23578125 1.71875 166.42578125 C-7.98648391 175.01704963 -20.06332867 179.92404601 -32.78125 181.92578125 C-33.55597656 182.0546875 -34.33070313 182.18359375 -35.12890625 182.31640625 C-37.35153909 182.6229763 -39.54094551 182.8025645 -41.78125 182.92578125 C-43.18890625 183.00505859 -43.18890625 183.00505859 -44.625 183.0859375 C-69.7963287 183.80244809 -90.96275544 174.13332912 -109.34326172 157.30029297 C-127.94871957 139.51612867 -136.92272139 112.89874784 -137.90625 87.7265625 C-138.45232962 57.24849356 -128.26014724 31.18123814 -107.53125 9.17578125 C-97.83677591 -0.19145321 -86.43737558 -6.51976526 -73.78125 -11.07421875 C-72.83894531 -11.41453125 -71.89664063 -11.75484375 -70.92578125 -12.10546875 C-47.66671503 -18.88543947 -19.45801506 -14.51152528 0 0 Z M-68.65625 51.05078125 C-78.31255416 61.46066269 -81.26928766 73.55709701 -81.03125 87.36328125 C-80.18193221 99.46605982 -75.67328543 110.51766611 -66.78125 118.92578125 C-56.07040958 127.53089879 -44.27418061 129.74445344 -30.78125 128.92578125 C-19.44603313 127.27447805 -8.80054081 122.22762873 -1.78125 112.92578125 C6.09824383 99.56885638 8.19366219 86.36135065 5.56640625 71.1484375 C2.15436801 58.83288318 -4.90561742 49.98172195 -15.96875 43.6796875 C-33.27297583 35.24387741 -54.48502876 37.97147991 -68.65625 51.05078125 Z " fill="#FFFFFF" transform="translate(834.78125,547.07421875)"/>
<path d="M0 0 C18.81 0 37.62 0 57 0 C57.33 29.04 57.66 58.08 58 88 C60.97 85.36 63.94 82.72 67 80 C84.12218271 69.36919425 105.64859607 65.91962569 125.40405273 70.07617188 C138.55250746 73.32053231 149.53186689 79.2589117 159 89 C159.93392578 89.90298828 159.93392578 89.90298828 160.88671875 90.82421875 C175.32297458 105.77953097 179.17536612 126.45935772 179.11352539 146.45288086 C179.11367142 147.69260651 179.11381744 148.93233215 179.1139679 150.20962524 C179.1133926 153.59135852 179.10839405 156.97302996 179.10139394 160.3547523 C179.09512211 163.89548099 179.09455358 167.43621059 179.09336853 170.97694397 C179.09026648 177.67387814 179.08206832 184.3707959 179.07201904 191.06772286 C179.05872738 200.12289865 179.0533489 209.17807897 179.04751682 218.23326206 C179.03812764 232.48885366 179.01820121 246.74441062 179 261 C160.52 261 142.04 261 123 261 C122.95101563 253.34296875 122.90203125 245.6859375 122.8515625 237.796875 C122.81615358 232.92967474 122.78018061 228.0624916 122.7421875 223.1953125 C122.68201152 215.47951787 122.62386027 207.76374706 122.578125 200.04785156 C122.5410979 193.82321337 122.49469157 187.59870771 122.44193649 181.37418365 C122.4234848 179.00611967 122.40834328 176.63802738 122.39665604 174.26992035 C122.37963484 170.93859956 122.35056301 167.60757625 122.31884766 164.27636719 C122.31668747 163.30963074 122.31452728 162.34289429 122.31230164 161.34686279 C122.17634005 150.07842532 121.29773808 138.85386292 113.36328125 130.21875 C106.16312455 123.61725801 97.90378904 121.6797589 88.3515625 121.85546875 C79.4577694 122.40209723 71.3175513 125.33777023 65.140625 132.0078125 C58.7666123 140.81152311 57.55239785 150.84342757 57.56762695 161.43823242 C57.5574353 162.52248505 57.54724365 163.60673767 57.53674316 164.72384644 C57.50681879 168.26777451 57.49737864 171.81143139 57.48828125 175.35546875 C57.47141935 177.82840356 57.45326709 180.30132988 57.43388367 182.77424622 C57.38654195 189.25303493 57.35663021 195.7317892 57.33044434 202.21069336 C57.29529563 210.00031502 57.23832808 217.78980822 57.18505096 225.57932281 C57.10672288 237.38619804 57.0559761 249.1929024 57 261 C38.19 261 19.38 261 0 261 C0 174.87 0 88.74 0 0 Z " fill="#FFFFFF" transform="translate(1053,816)"/>
<path d="M0 0 C18.48 0 36.96 0 56 0 C56.33 29.37 56.66 58.74 57 89 C58.65 87.02 60.3 85.04 62 83 C79.27463785 69.24119389 99.82188102 67.65021549 121 69 C126.24244306 69.64649891 131.08518056 71.07155301 136 73 C137.03769531 73.40089844 138.07539062 73.80179688 139.14453125 74.21484375 C147.54499389 77.93520269 153.61886721 83.56172274 160 90 C160.59554688 90.56203125 161.19109375 91.1240625 161.8046875 91.703125 C176.45118078 106.74546945 179.17792591 130.36610336 179.11352539 150.22094727 C179.11367142 151.41219711 179.11381744 152.60344696 179.1139679 153.83079529 C179.11339406 157.06984608 179.10840788 160.30885265 179.10139394 163.54789472 C179.09510695 166.94313693 179.0945524 170.33838018 179.09336853 173.73362732 C179.09027089 180.15070912 179.08207878 186.56777371 179.07201904 192.98484796 C179.05970763 201.01398387 179.05426292 209.04312262 179.04882812 217.07226562 C179.03911234 231.38152379 179.01907618 245.69074446 179 260 C160.19 260 141.38 260 122 260 C121.96261719 251.95882812 121.92523437 243.91765625 121.88671875 235.6328125 C121.85643114 230.52862468 121.82527796 225.4244714 121.79101562 220.3203125 C121.73675445 212.22462683 121.685202 204.12901262 121.65356445 196.03320312 C121.62803272 189.50380053 121.58706226 182.97459896 121.53681374 176.4453392 C121.52017128 173.95840196 121.50864073 171.47142491 121.50238609 168.98443985 C121.4927168 165.49214985 121.4646223 162.00044548 121.43237305 158.50830078 C121.43380814 157.48762009 121.43524323 156.46693939 121.4367218 155.41532898 C121.30560276 145.3284835 119.28366143 136.34913254 112 129 C105.38770424 123.81310931 98.66623137 121.60486066 90.25 121.625 C89.54697754 121.62661133 88.84395508 121.62822266 88.11962891 121.62988281 C82.10288537 121.77073841 77.30202475 123.09505924 72 126 C70.9275 126.53625 69.855 127.0725 68.75 127.625 C60.59926138 134.66427426 57.94959601 144.63140574 57 155 C56.84556058 158.51551001 56.81592599 162.02830938 56.79467773 165.546875 C56.78477814 166.57216812 56.77487854 167.59746124 56.76467896 168.65382385 C56.73326781 172.01919297 56.70838766 175.38457618 56.68359375 178.75 C56.66300659 181.09269564 56.64200967 183.43538771 56.62062073 185.77807617 C56.56558197 191.92646383 56.51609283 198.07488399 56.46777344 204.22332764 C56.40856377 211.60985345 56.34243644 218.99632021 56.27747345 226.38279724 C56.17969307 237.58849525 56.09068028 248.79423216 56 260 C37.52 260 19.04 260 0 260 C0 174.2 0 88.4 0 0 Z " fill="#FFFFFF" transform="translate(1104,464)"/>
<path d="M0 0 C19.40199922 16.32181277 31.51397629 38.79516671 34.625 64 C34.86898307 68.96236753 34.86045564 73.90780513 34.8125 78.875 C34.8115332 80.81246094 34.8115332 80.81246094 34.81054688 82.7890625 C34.78583591 88.08270097 34.66770506 92.78647471 33.625 98 C-10.265 98 -54.155 98 -99.375 98 C-91.83629815 113.0774037 -87.4081097 120.86198002 -72 126.8125 C-61.23394626 130.33931071 -48.31759307 130.84099561 -37.77734375 126.27734375 C-30.73973948 122.54123152 -30.73973948 122.54123152 -24.875 117.25390625 C-24.1325 116.63322266 -24.1325 116.63322266 -23.375 116 C-19.88962219 116.48599541 -17.14911215 118.09715973 -14.11328125 119.80859375 C-13.08388428 120.38657715 -12.0544873 120.96456055 -10.99389648 121.56005859 C-9.90278564 122.17961426 -8.8116748 122.79916992 -7.6875 123.4375 C-6.57511963 124.06479004 -5.46273926 124.69208008 -4.31665039 125.33837891 C4.7268295 130.45300035 13.70424395 135.67454178 22.625 141 C18.41411727 153.35192269 3.83160972 161.3734096 -7.125 167.25 C-34.7208467 180.33893915 -68.27663904 180.39587129 -96.87207031 170.5378418 C-109.16405543 166.0254394 -119.67450055 159.85697776 -129.375 151 C-130.10332031 150.34128906 -130.83164062 149.68257812 -131.58203125 149.00390625 C-150.125715 131.38208823 -158.40329588 105.82901214 -159.33984375 80.82421875 C-159.72240162 61.02382864 -154.92990496 43.24497879 -145.375 26 C-144.85292969 25.02289062 -144.33085938 24.04578125 -143.79296875 23.0390625 C-132.36444606 3.30677776 -111.78876575 -9.78323224 -90.375 -16.25 C-58.94725145 -24.53863698 -26.02219337 -20.25274683 0 0 Z M-91.375 42 C-95.17191339 46.90510342 -97.38786586 51.03859759 -99.375 57 C-73.965 57 -48.555 57 -22.375 57 C-25.56163277 47.44010169 -30.58211294 39.90558781 -39.43359375 34.81640625 C-55.61614399 26.94147538 -78.57363678 28.29908152 -91.375 42 Z " fill="#FFFFFF" transform="translate(793.375,905)"/>
<path d="M0 0 C64.02 0 128.04 0 194 0 C194 19.14 194 38.28 194 58 C171.89 58 149.78 58 127 58 C127 124.99 127 191.98 127 261 C107.2 261 87.4 261 67 261 C67 194.01 67 127.02 67 58 C44.89 58 22.78 58 0 58 C0 38.86 0 19.72 0 0 Z " fill="#FFFFFF" transform="translate(464,816)"/>
<path d="M0 0 C9.06318882 7.24643376 17.14361767 15.9056599 22.45703125 26.328125 C22.45703125 26.988125 22.45703125 27.648125 22.45703125 28.328125 C21.78462402 28.71444092 21.1122168 29.10075684 20.41943359 29.4987793 C17.81203919 30.99766593 15.20519774 32.49750783 12.59887695 33.9982605 C11.42335971 34.67513314 10.2477416 35.35183064 9.07202148 36.02835083 C2.65886619 39.72002103 -3.74043696 43.43122247 -10.09765625 47.21875 C-11.10231934 47.81727783 -12.10698242 48.41580566 -13.14208984 49.0324707 C-15.05098924 50.17295857 -16.95763468 51.31722892 -18.86181641 52.46557617 C-19.71565918 52.97580322 -20.56950195 53.48603027 -21.44921875 54.01171875 C-22.19494141 54.46087646 -22.94066406 54.91003418 -23.70898438 55.37280273 C-25.54296875 56.328125 -25.54296875 56.328125 -27.54296875 56.328125 C-28.76953125 54.5703125 -28.76953125 54.5703125 -30.16796875 52.203125 C-35.83750841 43.47970287 -43.70876788 39.75107372 -53.4375 36.7421875 C-64.08641858 34.64796604 -75.43874943 36.32608145 -84.88671875 41.6484375 C-86.93272369 43.08851021 -88.72705189 44.60841565 -90.54296875 46.328125 C-91.46529297 47.17310547 -91.46529297 47.17310547 -92.40625 48.03515625 C-100.0544327 55.81435707 -103.23499497 66.26555768 -103.67578125 77 C-103.22512228 88.29298353 -100.14825469 99.58960527 -92.41796875 108.078125 C-82.98129834 116.77466439 -72.3651936 119.81994408 -59.84765625 119.57421875 C-49.22998572 118.78354116 -39.20507089 114.78433468 -32.04296875 106.703125 C-30.16742248 104.38050085 -28.8158111 102.02702221 -27.54296875 99.328125 C-23.01171356 100.98225311 -18.92436863 103.22516434 -14.73046875 105.578125 C-13.5856604 106.21717773 -13.5856604 106.21717773 -12.41772461 106.86914062 C14.03588607 121.71402821 14.03588607 121.71402821 22.45703125 127.328125 C16.32118296 144.30802201 -0.89644863 158.49699497 -16.65966797 166.38769531 C-41.20008667 177.86761999 -70.03851651 180.23515855 -95.83081055 171.32714844 C-107.91089427 166.85811469 -118.91908503 160.95906834 -128.54296875 152.328125 C-129.43757812 151.52761719 -130.3321875 150.72710938 -131.25390625 149.90234375 C-148.18069946 133.90012327 -159.5603375 111.17187663 -160.66723633 87.69213867 C-161.41584231 59.65070282 -156.60259515 33.23515143 -137.10546875 11.953125 C-135.28299823 10.04176886 -133.42193694 8.18568044 -131.54296875 6.328125 C-130.74117187 5.51601563 -129.939375 4.70390625 -129.11328125 3.8671875 C-94.70049572 -29.19165237 -36.65848876 -28.1878865 0 0 Z " fill="#FFFFFF" transform="translate(1009.54296875,905.671875)"/>
<path d="M0 0 C2.44503316 1.89920007 4.73032764 3.87164876 6.9921875 5.984375 C7.69601562 6.62117187 8.39984375 7.25796875 9.125 7.9140625 C14.1409621 12.66301521 18.57002536 17.96350848 21.9921875 23.984375 C21.9921875 24.974375 21.9921875 25.964375 21.9921875 26.984375 C20.99888428 27.50870117 20.00558105 28.03302734 18.98217773 28.57324219 C15.27093614 30.53266371 11.56052 32.49364393 7.8503418 34.45507812 C6.24932706 35.3012019 4.64809353 36.14691184 3.04663086 36.9921875 C0.73492682 38.21243339 -1.57596695 39.43420203 -3.88671875 40.65625 C-4.59429825 41.02933289 -5.30187775 41.40241577 -6.03089905 41.7868042 C-9.35578558 43.54692965 -12.63748911 45.34546182 -15.87768555 47.25756836 C-19.0078125 48.984375 -19.0078125 48.984375 -21.2109375 48.94140625 C-23.40247317 47.7741753 -24.97036848 46.3965369 -26.7578125 44.671875 C-34.10706857 37.99447256 -41.34345131 35.60716841 -51.1796875 35.69921875 C-56.4276494 36.22836408 -60.26684863 38.34892409 -64.0703125 41.921875 C-65.17591995 43.97661619 -65.17591995 43.97661619 -65.0078125 46.421875 C-63.40880328 50.51933612 -61.05111005 52.97035723 -57.0793457 54.94140625 C-48.61397984 58.36359479 -39.84138174 60.63110093 -31.03564453 62.98168945 C-11.99616309 68.08576762 7.87960153 74.53181365 18.9453125 92.08203125 C26.85116799 107.26050623 28.05760472 124.73898342 23.0234375 141.140625 C16.7351026 157.62625974 5.46339792 167.70015995 -10.1015625 175.13134766 C-23.44340804 181.10168683 -37.62712736 182.37901952 -52.0703125 182.359375 C-52.7483493 182.35883118 -53.42638611 182.35828735 -54.12496948 182.35772705 C-78.28295225 182.26894358 -99.97665907 176.21359275 -117.86328125 159.28125 C-123.25753485 153.56872728 -128.76583443 147.20567634 -132.0078125 139.984375 C-131.88598633 138.02758789 -131.88598633 138.02758789 -131.0078125 135.984375 C-128.86914062 134.40380859 -128.86914062 134.40380859 -126.0390625 132.8828125 C-124.48094849 132.03009766 -124.48094849 132.03009766 -122.89135742 131.16015625 C-121.7747876 130.56589844 -120.65821777 129.97164062 -119.5078125 129.359375 C-117.22154551 128.11923303 -114.93639309 126.87703413 -112.65234375 125.6328125 C-111.52393066 125.02018555 -110.39551758 124.40755859 -109.23291016 123.77636719 C-106.34522184 122.17185302 -103.51867651 120.50678544 -100.70703125 118.7734375 C-99.93488281 118.2985791 -99.16273438 117.8237207 -98.3671875 117.33447266 C-96.94937301 116.4531199 -95.53877322 115.56002264 -94.13671875 114.65380859 C-92.23828125 113.484375 -92.23828125 113.484375 -89.0078125 111.984375 C-85.73186726 112.80750458 -85.01227246 113.97873446 -82.8828125 116.671875 C-76.92705477 124.14397596 -67.27534353 129.83980069 -57.90625 131.55078125 C-50.58865316 132.36479963 -44.84122651 131.64914262 -38.0078125 128.984375 C-37.0178125 128.654375 -36.0278125 128.324375 -35.0078125 127.984375 C-33.79312563 124.34031438 -33.08646973 120.73850301 -34.0078125 116.984375 C-37.39214452 112.84935935 -40.59249384 110.98050066 -45.5703125 109.171875 C-46.23724121 108.92888672 -46.90416992 108.68589844 -47.59130859 108.43554688 C-54.66942853 105.94414807 -61.90808955 103.9983612 -69.1328125 101.984375 C-83.11971893 98.07264973 -95.37676314 93.96390161 -107.0078125 84.984375 C-107.8946875 84.38625 -108.7815625 83.788125 -109.6953125 83.171875 C-120.05407211 73.37304834 -123.85550801 60.81814261 -124.2578125 46.921875 C-124.07734398 31.1850203 -119.30109013 17.6362267 -108.3515625 6.23046875 C-80.17106098 -20.77584521 -31.74957076 -21.27633573 0 0 Z " fill="#FFFFFF" transform="translate(1052.0078125,547.015625)"/>
<path d="M0 0 C21.78 0 43.56 0 66 0 C66 21.78 66 43.56 66 66 C44.22 66 22.44 66 0 66 C0 44.22 0 22.44 0 0 Z " fill="#FFFFFF" transform="translate(1272,1011)"/>
</svg>
